STARTFONT 2.1
COMMENT CVS:Version $Id 1.5
COMMENT
COMMENT (C) CENA/J.L. Vinot, 2002, CENA (Centre d'Etudes de la Navigation Aťrienne)
COMMENT This software is free software; you can redistribute it and/or modify it 
COMMENT under the terms of the GNU Lesser General Public License as published by the Free Software Foundation: 
COMMENT either version 2 of the License, or (at your option) any later version.
COMMENT 
COMMENT This software is distributed in the hope that it will be useful, but WITHOUT ANY WARRANTY; 
COMMENT without even the implied warranty of MERCHANTABILITY or FITNESS FOR A PARTICULAR PURPOSE.  
COMMENT See the GNU Lesser General Public License for more details.
COMMENT 
COMMENT You should have received a copy of the GNU Lesser General Public License along with this software; 
COMMENT if not, write to the Free Software Foundation, Inc., 59 Temple Place - Suite 330, Boston, MA  02111-1307, USA.
COMMENT Please refer to http://www.gnu.org/copyleft/gpl.html
COMMENT 
COMMENT This font has been originally designed by CENA/France for the specific needs of Air Traffic Control. 
COMMENT For example, it must offer good legibility and avoid any confusion between character shapes. 
COMMENT CENA would like to preserve its qualities. If you have any specific need, you can modify this font, 
COMMENT but we would like you to change its name to avoid any confusion between your new font and the original one designed by CENA.
COMMENT Note however, that as implied in the LGPL licence, you must credit CENA for the original work. 
COMMENT Finally, CENA would appreciate it if you send back any enhancement or extension made to the original work. 
COMMENT This statement must be fully included with any further distribution of the font.
COMMENT 
COMMENT to contact us: email to:  pii-contact@cena.fr
COMMENT write to: CENA, 7 avenue Edouard Belin, 31400 Toulouse, France 
FONT -CenaPii-Bleriot Radar-Medium-R-Condensed--24-240-75-75-P-130-ISO8859-15
SIZE 24 72 72

STARTCHAR gcid14
ENCODING 20
SWIDTH 583 0
DWIDTH 14 0
BBX 11 3 1 7
BITMAP
FFE0
FFE0
FFE0
ENDCHAR
STARTCHAR gcid15
ENCODING 21
SWIDTH 666 0
DWIDTH 16 0
BBX 14 14 1 2
BITMAP
6000
F000
7800
3C00
1E04
0F0C
079C
03FC
01FC
00FC
01FC
03FC
07FC
0FFC
ENDCHAR
STARTCHAR gcid16
ENCODING 22
SWIDTH 666 0
DWIDTH 16 0
BBX 14 14 1 0
BITMAP
0FFC
07FC
03FC
01FC
01FC
03FC
07BC
0F1C
1E0C
3C04
7800
F000
E000
4000
ENDCHAR
STARTCHAR space
ENCODING 32
SWIDTH 625 0
DWIDTH 15 0
BBX 0 0 0 0
BITMAP
ENDCHAR
STARTCHAR exclam
ENCODING 33
SWIDTH 416 0
DWIDTH 10 0
BBX 3 17 2 0
BITMAP
E0
E0
E0
E0
E0
E0
E0
E0
E0
E0
E0
40
00
00
E0
E0
E0
ENDCHAR
STARTCHAR quotedbl
ENCODING 34
SWIDTH 416 0
DWIDTH 10 0
BBX 6 5 2 12
BITMAP
CC
CC
CC
CC
CC
ENDCHAR
STARTCHAR numbersign
ENCODING 35
SWIDTH 666 0
DWIDTH 16 0
BBX 14 14 1 1
BITMAP
03B8
0330
0330
3FFC
3FF8
0660
0E60
0CE0
0CC0
7FF8
FFF8
1980
1980
3B80
ENDCHAR
STARTCHAR dollar
ENCODING 36
SWIDTH 541 0
DWIDTH 13 0
BBX 10 22 2 -2
BITMAP
0C00
0C00
1E00
7F00
7F80
ED80
EC80
EC00
FC00
7C00
3E00
1F00
0F80
0FC0
0DC0
8DC0
CDC0
FF80
7F80
1E00
0C00
0C00
ENDCHAR
STARTCHAR percent
ENCODING 37
SWIDTH 708 0
DWIDTH 17 0
BBX 15 17 1 0
BITMAP
7830
FC30
CC70
CC60
CCE0
FCC0
79C0
0180
0380
0300
073C
067E
0E66
0C66
1C66
187E
383C
ENDCHAR
STARTCHAR ampersand
ENCODING 38
SWIDTH 625 0
DWIDTH 15 0
BBX 13 17 1 0
BITMAP
0F00
1F80
39C0
39C0
39C0
1F80
1F00
1E00
3F00
7700
E380
E1D8
E1F8
E0F0
71F0
7FF0
1E38
ENDCHAR
STARTCHAR quotesingle
ENCODING 39
SWIDTH 250 0
DWIDTH 6 0
BBX 2 5 2 12
BITMAP
C0
C0
C0
C0
C0
ENDCHAR
STARTCHAR parenleft
ENCODING 40
SWIDTH 416 0
DWIDTH 10 0
BBX 7 22 2 -4
BITMAP
0E
1C
38
30
70
70
60
E0
E0
E0
E0
E0
E0
E0
E0
60
70
70
30
38
1C
0E
ENDCHAR
STARTCHAR parenright
ENCODING 41
SWIDTH 416 0
DWIDTH 10 0
BBX 7 22 1 -4
BITMAP
E0
70
38
18
1C
1C
0C
0E
0E
0E
0E
0E
0E
0E
0E
0C
1C
1C
18
38
70
E0
ENDCHAR
STARTCHAR asterisk
ENCODING 42
SWIDTH 458 0
DWIDTH 11 0
BBX 10 9 1 8
BITMAP
0C00
CCC0
6D80
3F00
1E00
3F00
6D80
CCC0
0C00
ENDCHAR
STARTCHAR plus
ENCODING 43
SWIDTH 583 0
DWIDTH 14 0
BBX 11 10 1 1
BITMAP
0E00
0E00
0E00
0E00
FFE0
FFE0
0E00
0E00
0E00
0E00
ENDCHAR
STARTCHAR comma
ENCODING 44
SWIDTH 416 0
DWIDTH 10 0
BBX 4 8 3 -4
BITMAP
60
F0
F0
E0
E0
C0
80
80
ENDCHAR
STARTCHAR hyphen
ENCODING 45
SWIDTH 541 0
DWIDTH 13 0
BBX 9 3 2 5
BITMAP
FF80
FF80
FF80
ENDCHAR
STARTCHAR period
ENCODING 46
SWIDTH 541 0
DWIDTH 13 0
BBX 4 4 3 0
BITMAP
60
F0
F0
60
ENDCHAR
STARTCHAR slash
ENCODING 47
SWIDTH 458 0
DWIDTH 11 0
BBX 11 21 0 -2
BITMAP
00E0
00C0
00C0
0180
0180
0180
0300
0700
0600
0600
0E00
0C00
1C00
1800
1800
3800
3000
7000
6000
6000
E000
ENDCHAR
STARTCHAR zero
ENCODING 48
SWIDTH 625 0
DWIDTH 15 0
BBX 12 17 2 0
BITMAP
0F00
3FC0
70E0
70E0
E070
E370
E370
E670
E670
E670
EC70
EC70
E070
70E0
70E0
3FC0
0F00
ENDCHAR
STARTCHAR one
ENCODING 49
SWIDTH 541 0
DWIDTH 13 0
BBX 8 17 2 0
BITMAP
03
07
0F
1F
3F
77
E7
C7
07
07
07
07
07
07
07
07
07
ENDCHAR
STARTCHAR two
ENCODING 50
SWIDTH 625 0
DWIDTH 15 0
BBX 11 17 3 0
BITMAP
1F00
7F80
7380
E1C0
01C0
01C0
01C0
0380
0380
0700
0E00
0E00
1C00
3800
7800
7FE0
FFE0
ENDCHAR
STARTCHAR three
ENCODING 51
SWIDTH 625 0
DWIDTH 15 0
BBX 11 17 2 0
BITMAP
7FC0
FFC0
0380
0700
0E00
1E00
1F00
0780
03C0
01C0
00E0
00E0
00E0
E0E0
F1C0
7FC0
1F00
ENDCHAR
STARTCHAR four
ENCODING 52
SWIDTH 625 0
DWIDTH 15 0
BBX 13 17 2 0
BITMAP
0700
0600
0E00
0C00
1C00
1C20
3860
38E0
30E0
70E0
70E0
FFF8
FFF8
00E0
00E0
00E0
00E0
ENDCHAR
STARTCHAR five
ENCODING 53
SWIDTH 625 0
DWIDTH 15 0
BBX 11 17 2 0
BITMAP
7F80
7F80
7000
7000
7000
7E00
7F80
63C0
01C0
00E0
00E0
00E0
00E0
60E0
F1C0
7F80
1F00
ENDCHAR
STARTCHAR six
ENCODING 54
SWIDTH 625 0
DWIDTH 15 0
BBX 12 17 2 0
BITMAP
0700
0E00
1C00
3800
3800
7000
6F80
FFE0
F8E0
F070
E070
E070
E070
E0E0
71E0
7FC0
1F00
ENDCHAR
STARTCHAR seven
ENCODING 55
SWIDTH 583 0
DWIDTH 14 0
BBX 12 17 2 0
BITMAP
FFF0
FFE0
00E0
01C0
01C0
0380
0380
0380
0700
0700
0700
0E00
0E00
0E00
0E00
0E00
0E00
ENDCHAR
STARTCHAR eight
ENCODING 56
SWIDTH 625 0
DWIDTH 15 0
BBX 12 17 2 0
BITMAP
0F00
3FC0
39C0
70E0
70E0
78E0
3DC0
1F80
3F80
77C0
E1E0
E0F0
E070
E070
70E0
7FE0
1F80
ENDCHAR
STARTCHAR nine
ENCODING 57
SWIDTH 625 0
DWIDTH 15 0
BBX 12 17 2 0
BITMAP
0F80
3FE0
78E0
7070
E070
E070
E070
E0F0
71F0
7FE0
1EE0
00E0
01C0
01C0
0380
0700
0E00
ENDCHAR
STARTCHAR colon
ENCODING 58
SWIDTH 416 0
DWIDTH 10 0
BBX 4 12 3 0
BITMAP
60
F0
F0
60
00
00
00
00
60
F0
F0
60
ENDCHAR
STARTCHAR semicolon
ENCODING 59
SWIDTH 416 0
DWIDTH 10 0
BBX 5 16 3 -4
BITMAP
30
78
78
30
00
00
00
00
60
F0
F0
E0
E0
C0
C0
80
ENDCHAR
STARTCHAR less
ENCODING 60
SWIDTH 458 0
DWIDTH 11 0
BBX 8 12 1 0
BITMAP
07
0E
1C
38
70
E0
E0
70
38
1C
0E
07
ENDCHAR
STARTCHAR equal
ENCODING 61
SWIDTH 458 0
DWIDTH 11 0
BBX 10 8 1 2
BITMAP
FFC0
FFC0
0000
0000
0000
0000
FFC0
FFC0
ENDCHAR
STARTCHAR greater
ENCODING 62
SWIDTH 458 0
DWIDTH 11 0
BBX 8 12 2 0
BITMAP
E0
70
38
1C
0E
07
07
0E
1C
38
70
E0
ENDCHAR
STARTCHAR question
ENCODING 63
SWIDTH 500 0
DWIDTH 12 0
BBX 11 18 1 0
BITMAP
1F00
7FC0
71C0
E0E0
E0E0
00E0
00E0
01C0
0380
0700
0E00
0E00
1E00
0000
0C00
1E00
1E00
0C00
ENDCHAR
STARTCHAR at
ENCODING 64
SWIDTH 875 0
DWIDTH 21 0
BBX 20 21 1 -3
BITMAP
01FC00
07FF00
0F0780
3C01C0
3000E0
700060
60FC70
E3FC30
C39C30
C31C30
C71C30
C71C30
C71C30
C71C70
E3BC60
63FFE0
71E780
380000
1E0000
0FFC00
03F800
ENDCHAR
STARTCHAR A
ENCODING 65
SWIDTH 625 0
DWIDTH 15 0
BBX 14 17 1 0
BITMAP
0700
0700
0F80
0F80
0DC0
0DC0
1CC0
18E0
18E0
3860
3070
3FF0
7FF8
7038
6038
E01C
E01C
ENDCHAR
STARTCHAR B
ENCODING 66
SWIDTH 541 0
DWIDTH 13 0
BBX 11 17 2 0
BITMAP
FE00
FF80
E380
E1C0
E1C0
E1C0
E380
FF00
FF80
E3C0
E1C0
E0E0
E0E0
E0E0
E1C0
FFC0
FF00
ENDCHAR
STARTCHAR C
ENCODING 67
SWIDTH 625 0
DWIDTH 15 0
BBX 12 17 2 0
BITMAP
07C0
1FF0
3C60
7000
7000
E000
E000
E000
E000
E000
E000
E000
7000
7000
3C60
1FF0
07C0
ENDCHAR
STARTCHAR D
ENCODING 68
SWIDTH 666 0
DWIDTH 16 0
BBX 13 17 2 0
BITMAP
FE00
FF80
E3E0
E0E0
E070
E070
E038
E038
E038
E038
E038
E070
E070
E0E0
E3E0
FF80
FE00
ENDCHAR
STARTCHAR E
ENCODING 69
SWIDTH 541 0
DWIDTH 13 0
BBX 10 17 2 0
BITMAP
FF80
FF80
E000
E000
E000
E000
E000
FF00
FF00
E000
E000
E000
E000
E000
E000
FFC0
FFC0
ENDCHAR
STARTCHAR F
ENCODING 70
SWIDTH 458 0
DWIDTH 11 0
BBX 9 17 2 0
BITMAP
FF80
FF80
E000
E000
E000
E000
E000
FF00
FF00
E000
E000
E000
E000
E000
E000
E000
E000
ENDCHAR
STARTCHAR G
ENCODING 71
SWIDTH 708 0
DWIDTH 17 0
BBX 13 17 2 0
BITMAP
07E0
1FF0
3C60
7000
7000
E000
E000
E1F8
E1F8
E038
E038
E038
7038
7038
3C38
1FF8
07F8
ENDCHAR
STARTCHAR H
ENCODING 72
SWIDTH 583 0
DWIDTH 14 0
BBX 12 17 2 0
BITMAP
E070
E070
E070
E070
E070
E070
E070
FFF0
FFF0
E070
E070
E070
E070
E070
E070
E070
E070
ENDCHAR
STARTCHAR I
ENCODING 73
SWIDTH 375 0
DWIDTH 9 0
BBX 3 17 4 0
BITMAP
E0
E0
E0
E0
E0
E0
E0
E0
E0
E0
E0
E0
E0
E0
E0
E0
E0
ENDCHAR
STARTCHAR J
ENCODING 74
SWIDTH 416 0
DWIDTH 10 0
BBX 8 17 0 0
BITMAP
07
07
07
07
07
07
07
07
07
07
07
07
07
87
CE
FE
78
ENDCHAR
STARTCHAR K
ENCODING 75
SWIDTH 666 0
DWIDTH 16 0
BBX 13 17 2 0
BITMAP
E0E0
E1C0
E380
E700
EE00
FC00
F800
F000
F800
FC00
FE00
EF00
E780
E3C0
E1E0
E0F0
E078
ENDCHAR
STARTCHAR L
ENCODING 76
SWIDTH 416 0
DWIDTH 10 0
BBX 8 17 2 0
BITMAP
E0
E0
E0
E0
E0
E0
E0
E0
E0
E0
E0
E0
E0
E0
E0
FF
FF
ENDCHAR
STARTCHAR M
ENCODING 77
SWIDTH 750 0
DWIDTH 18 0
BBX 15 17 2 0
BITMAP
E00E
E00E
F01E
F01E
F83E
F83E
F83E
FC7E
EC6E
EC6E
E6CE
E6CE
E7CE
E38E
E38E
E10E
E10E
ENDCHAR
STARTCHAR N
ENCODING 78
SWIDTH 583 0
DWIDTH 14 0
BBX 11 17 2 0
BITMAP
E0E0
E0E0
F0E0
F0E0
F8E0
F8E0
FCE0
ECE0
ECE0
E6E0
E6E0
E7E0
E3E0
E3E0
E1E0
E1E0
E0E0
ENDCHAR
STARTCHAR O
ENCODING 79
SWIDTH 750 0
DWIDTH 18 0
BBX 15 17 2 0
BITMAP
07C0
1FF0
3C78
701C
701C
E00E
E00E
E00E
E00E
E00E
E00E
E00E
701C
701C
3C78
1FF0
07C0
ENDCHAR
STARTCHAR P
ENCODING 80
SWIDTH 541 0
DWIDTH 13 0
BBX 11 17 2 0
BITMAP
FE00
FF80
E3C0
E1C0
E0E0
E0E0
E0E0
E0E0
E1C0
E3C0
FF80
FE00
E000
E000
E000
E000
E000
ENDCHAR
STARTCHAR Q
ENCODING 81
SWIDTH 791 0
DWIDTH 19 0
BBX 17 17 2 0
BITMAP
07C000
1FF000
3C7800
701C00
701C00
E00E00
E00E00
E00E00
E78E00
EFCE00
F9EE00
F0FE00
707C00
703C00
3C7E00
1FEF00
07C780
ENDCHAR
STARTCHAR R
ENCODING 82
SWIDTH 625 0
DWIDTH 15 0
BBX 13 17 2 0
BITMAP
FE00
FF80
E3C0
E1C0
E0E0
E0E0
E0E0
E1C0
E3C0
FF80
FE00
EF00
E780
E3C0
E1E0
E0F0
E078
ENDCHAR
STARTCHAR S
ENCODING 83
SWIDTH 541 0
DWIDTH 13 0
BBX 11 17 2 0
BITMAP
1E00
7F80
7380
E180
E000
7000
7C00
3E00
0F80
07C0
01E0
00E0
40E0
E0E0
F1C0
7FC0
1F00
ENDCHAR
STARTCHAR T
ENCODING 84
SWIDTH 500 0
DWIDTH 12 0
BBX 11 17 1 0
BITMAP
FFE0
FFE0
0E00
0E00
0E00
0E00
0E00
0E00
0E00
0E00
0E00
0E00
0E00
0E00
0E00
0E00
0E00
ENDCHAR
STARTCHAR U
ENCODING 85
SWIDTH 625 0
DWIDTH 15 0
BBX 12 17 2 0
BITMAP
E070
E070
E070
E070
E070
E070
E070
E070
E070
E070
E070
E070
E070
70E0
79E0
3FC0
0F00
ENDCHAR
STARTCHAR V
ENCODING 86
SWIDTH 625 0
DWIDTH 15 0
BBX 14 17 1 0
BITMAP
F01C
7018
7018
7038
3830
3830
3830
1C70
1C60
1C60
1CE0
0EC0
0EC0
0FC0
0780
0780
0780
ENDCHAR
STARTCHAR W
ENCODING 87
SWIDTH 875 0
DWIDTH 21 0
BBX 20 17 1 0
BITMAP
C04030
E0E070
E0E060
60E060
70E0E0
71F0C0
71F0C0
31B0C0
39B9C0
39B980
3BB980
1B1B80
1F1F00
1F1F00
0F0F00
0E0E00
0E0E00
ENDCHAR
STARTCHAR X
ENCODING 88
SWIDTH 625 0
DWIDTH 15 0
BBX 12 17 2 0
BITMAP
E0E0
E0C0
71C0
7180
3B80
1F00
1F00
0E00
0E00
1F00
1B80
3B80
31C0
71C0
60E0
E070
C070
ENDCHAR
STARTCHAR Y
ENCODING 89
SWIDTH 541 0
DWIDTH 13 0
BBX 13 17 0 0
BITMAP
E038
7030
7070
3860
38E0
1CC0
1DC0
0F80
0F80
0700
0700
0700
0700
0700
0700
0700
0700
ENDCHAR
STARTCHAR Z
ENCODING 90
SWIDTH 583 0
DWIDTH 14 0
BBX 12 17 2 0
BITMAP
7FE0
7FC0
01C0
0380
0380
0700
0700
0E00
0E00
1C00
1C00
3800
3800
7000
7000
FFF0
FFF0
ENDCHAR
STARTCHAR bracketleft
ENCODING 91
SWIDTH 416 0
DWIDTH 10 0
BBX 5 22 4 -4
BITMAP
F8
E0
E0
E0
E0
E0
E0
E0
E0
E0
E0
E0
E0
E0
E0
E0
E0
E0
E0
E0
E0
F8
ENDCHAR
STARTCHAR backslash
ENCODING 92
SWIDTH 458 0
DWIDTH 11 0
BBX 11 21 0 -2
BITMAP
E000
6000
7000
3000
3000
3800
1800
1C00
0C00
0C00
0E00
0600
0700
0300
0300
0380
0180
01C0
00C0
00C0
00E0
ENDCHAR
STARTCHAR bracketright
ENCODING 93
SWIDTH 416 0
DWIDTH 10 0
BBX 5 22 1 -4
BITMAP
F8
38
38
38
38
38
38
38
38
38
38
38
38
38
38
38
38
38
38
38
38
F8
ENDCHAR
STARTCHAR asciicircum
ENCODING 94
SWIDTH 541 0
DWIDTH 13 0
BBX 12 6 1 12
BITMAP
0600
0F00
1F80
39C0
70E0
E070
ENDCHAR
STARTCHAR underscore
ENCODING 95
SWIDTH 625 0
DWIDTH 15 0
BBX 15 2 0 -5
BITMAP
FFFE
FFFE
ENDCHAR
STARTCHAR a
ENCODING 97
SWIDTH 500 0
DWIDTH 12 0
BBX 10 13 2 0
BITMAP
3F00
3F80
01C0
01C0
0FC0
3FC0
71C0
E1C0
E1C0
E1C0
F3C0
7FC0
3DC0
ENDCHAR
STARTCHAR b
ENCODING 98
SWIDTH 583 0
DWIDTH 14 0
BBX 11 18 2 0
BITMAP
E000
E000
E000
E000
E000
EF00
FFC0
F1C0
E0E0
E0E0
E0E0
E0E0
E0E0
E0E0
E0E0
F1C0
FFC0
EF00
ENDCHAR
STARTCHAR c
ENCODING 99
SWIDTH 458 0
DWIDTH 11 0
BBX 9 13 2 0
BITMAP
0F80
3F80
7880
7000
E000
E000
E000
E000
E000
7000
7880
3F80
0F80
ENDCHAR
STARTCHAR d
ENCODING 100
SWIDTH 583 0
DWIDTH 14 0
BBX 11 18 2 0
BITMAP
00E0
00E0
00E0
00E0
00E0
1EE0
7FE0
71E0
E0E0
E0E0
E0E0
E0E0
E0E0
E0E0
E0E0
71E0
7FE0
1EE0
ENDCHAR
STARTCHAR e
ENCODING 101
SWIDTH 541 0
DWIDTH 13 0
BBX 11 13 2 0
BITMAP
0F00
3FC0
79C0
70E0
E0E0
E3E0
EF80
FE00
F800
7000
78C0
3FC0
0F00
ENDCHAR
STARTCHAR f
ENCODING 102
SWIDTH 416 0
DWIDTH 10 0
BBX 10 18 1 0
BITMAP
0780
1FC0
1C80
3800
3800
FF00
FF00
3800
3800
3800
3800
3800
3800
3800
3800
3800
3800
3800
ENDCHAR
STARTCHAR g
ENCODING 103
SWIDTH 583 0
DWIDTH 14 0
BBX 11 18 2 -5
BITMAP
0FE0
3FE0
78E0
70E0
E0E0
E0E0
E0E0
E0E0
E0E0
E1E0
73E0
7FE0
1EE0
00E0
00E0
01C0
1FC0
1F00
ENDCHAR
STARTCHAR h
ENCODING 104
SWIDTH 541 0
DWIDTH 13 0
BBX 10 17 2 0
BITMAP
E000
E000
E000
E000
E000
EF00
FF80
F1C0
E1C0
E1C0
E1C0
E1C0
E1C0
E1C0
E1C0
E1C0
E1C0
ENDCHAR
STARTCHAR i
ENCODING 105
SWIDTH 291 0
DWIDTH 7 0
BBX 3 18 2 0
BITMAP
E0
E0
E0
00
00
20
60
E0
E0
E0
E0
E0
E0
E0
E0
E0
E0
E0
ENDCHAR
STARTCHAR j
ENCODING 106
SWIDTH 333 0
DWIDTH 8 0
BBX 7 23 0 -5
BITMAP
0E
0E
0E
00
00
02
06
0E
0E
0E
0E
0E
0E
0E
0E
0E
0E
0E
0E
0E
1C
FC
F0
ENDCHAR
STARTCHAR k
ENCODING 107
SWIDTH 541 0
DWIDTH 13 0
BBX 11 17 2 0
BITMAP
E000
E000
E000
E000
E000
E380
E700
EE00
FC00
F800
F800
FC00
FE00
EF00
E780
E3C0
E1E0
ENDCHAR
STARTCHAR l
ENCODING 108
SWIDTH 333 0
DWIDTH 8 0
BBX 6 18 2 0
BITMAP
E0
E0
E0
E0
E0
E0
E0
E0
E0
E0
E0
E0
E0
E0
E0
70
7C
1C
ENDCHAR
STARTCHAR m
ENCODING 109
SWIDTH 833 0
DWIDTH 20 0
BBX 17 13 2 0
BITMAP
EF1E00
FFFF00
F1E380
E1C380
E1C380
E1C380
E1C380
E1C380
E1C380
E1C380
E1C380
E1C380
E1C380
ENDCHAR
STARTCHAR n
ENCODING 110
SWIDTH 541 0
DWIDTH 13 0
BBX 10 13 2 0
BITMAP
EF00
FF80
F1C0
E1C0
E1C0
E1C0
E1C0
E1C0
E1C0
E1C0
E1C0
E1C0
E1C0
ENDCHAR
STARTCHAR o
ENCODING 111
SWIDTH 625 0
DWIDTH 15 0
BBX 12 13 2 0
BITMAP
0F00
3FC0
79E0
70E0
E070
E070
E070
E070
E070
70E0
79E0
3FC0
0F00
ENDCHAR
STARTCHAR p
ENCODING 112
SWIDTH 583 0
DWIDTH 14 0
BBX 11 18 2 -5
BITMAP
EF00
FFC0
F1C0
E0E0
E0E0
E0E0
E0E0
E0E0
E0E0
E0E0
F1C0
FFC0
EF00
E000
E000
E000
E000
E000
ENDCHAR
STARTCHAR q
ENCODING 113
SWIDTH 583 0
DWIDTH 14 0
BBX 11 18 2 -5
BITMAP
1EE0
7FE0
71E0
E0E0
E0E0
E0E0
E0E0
E0E0
E0E0
E0E0
71E0
7FE0
1EE0
00E0
00E0
00E0
00E0
00E0
ENDCHAR
STARTCHAR r
ENCODING 114
SWIDTH 416 0
DWIDTH 10 0
BBX 7 13 2 0
BITMAP
EE
FE
F2
E0
E0
E0
E0
E0
E0
E0
E0
E0
E0
ENDCHAR
STARTCHAR s
ENCODING 115
SWIDTH 458 0
DWIDTH 11 0
BBX 8 13 2 0
BITMAP
3C
7E
E4
E0
F0
78
3C
1E
0F
87
C7
FE
7C
ENDCHAR
STARTCHAR t
ENCODING 116
SWIDTH 375 0
DWIDTH 9 0
BBX 8 18 1 0
BITMAP
08
18
38
38
38
FF
FE
38
38
38
38
38
38
38
38
1C
1F
07
ENDCHAR
STARTCHAR u
ENCODING 117
SWIDTH 541 0
DWIDTH 13 0
BBX 10 13 2 0
BITMAP
E1C0
E1C0
E1C0
E1C0
E1C0
E1C0
E1C0
E1C0
E1C0
E1C0
E3C0
7FC0
3DC0
ENDCHAR
STARTCHAR v
ENCODING 118
SWIDTH 500 0
DWIDTH 12 0
BBX 11 13 1 0
BITMAP
E060
E0E0
60C0
70C0
71C0
3180
3980
3B80
1B00
1F00
1F00
0E00
0E00
ENDCHAR
STARTCHAR w
ENCODING 119
SWIDTH 791 0
DWIDTH 19 0
BBX 18 13 1 0
BITMAP
E080C0
E0C1C0
61C180
71E180
71E380
31E300
3B7300
3B7700
1B3600
1F3E00
1E3E00
0E1C00
0E1C00
ENDCHAR
STARTCHAR x
ENCODING 120
SWIDTH 500 0
DWIDTH 12 0
BBX 11 13 1 0
BITMAP
71C0
7180
3B80
1B00
1F00
0E00
1F00
1F00
3B80
3380
71C0
61C0
E0E0
ENDCHAR
STARTCHAR y
ENCODING 121
SWIDTH 541 0
DWIDTH 13 0
BBX 12 18 1 -5
BITMAP
C030
E070
6060
7060
30E0
38C0
18C0
1D80
0D80
0F80
0700
0700
0700
0600
0E00
0E00
1C00
1C00
ENDCHAR
STARTCHAR z
ENCODING 122
SWIDTH 500 0
DWIDTH 12 0
BBX 10 13 2 0
BITMAP
7F80
FF80
0700
0700
0E00
1C00
1C00
3800
7000
7000
E000
FFC0
FFC0
ENDCHAR
STARTCHAR braceleft
ENCODING 123
SWIDTH 416 0
DWIDTH 10 0
BBX 8 22 1 -4
BITMAP
0F
1C
1C
1C
1C
1C
1C
1C
1C
38
F0
38
1C
1C
1C
1C
1C
1C
1C
1C
1C
0F
ENDCHAR
STARTCHAR bar
ENCODING 124
SWIDTH 416 0
DWIDTH 10 0
BBX 2 22 4 -4
BITMAP
C0
C0
C0
C0
C0
C0
C0
C0
C0
C0
C0
C0
C0
C0
C0
C0
C0
C0
C0
C0
C0
C0
ENDCHAR
STARTCHAR braceright
ENCODING 125
SWIDTH 416 0
DWIDTH 10 0
BBX 8 22 1 -4
BITMAP
F0
38
38
38
38
38
38
38
38
1C
0F
1C
38
38
38
38
38
38
38
38
38
F0
ENDCHAR
STARTCHAR Euro
ENCODING 164
SWIDTH 625 0
DWIDTH 15 0
BBX 14 18 0 0
BITMAP
01F0
07F8
0F1C
1C00
1C00
3800
FFF8
FFF0
3800
FFE0
FFC0
3800
3800
1C00
1C00
0F18
07FC
01F0
ENDCHAR
STARTCHAR degree
ENCODING 176
SWIDTH 375 0
DWIDTH 9 0
BBX 6 7 1 11
BITMAP
78
FC
CC
CC
CC
FC
78
ENDCHAR
STARTCHAR Agrave
ENCODING 192
SWIDTH 625 0
DWIDTH 15 0
BBX 14 22 1 0
BITMAP
1C00
0C00
0600
0000
0000
0700
0700
0F80
0F80
0DC0
0DC0
1CC0
18E0
18E0
3860
3070
3FF0
7FF8
7038
6038
E01C
E01C
ENDCHAR
STARTCHAR Acircumflex
ENCODING 194
SWIDTH 625 0
DWIDTH 15 0
BBX 14 22 1 0
BITMAP
0300
0780
0CC0
0000
0000
0700
0700
0F80
0F80
0DC0
0DC0
1CC0
18E0
18E0
3860
3070
3FF0
7FF8
7038
6038
E01C
E01C
ENDCHAR
STARTCHAR Ccedilla
ENCODING 199
SWIDTH 625 0
DWIDTH 15 0
BBX 13 22 2 -5
BITMAP
07E0
1FF8
3C30
7000
7000
E000
E000
E000
E000
E000
E000
E000
7000
7000
3C30
1FF8
07E0
07C0
00E0
0060
07E0
07C0
ENDCHAR
STARTCHAR Egrave
ENCODING 200
SWIDTH 541 0
DWIDTH 13 0
BBX 10 22 2 0
BITMAP
3800
1800
0C00
0000
0000
FF80
FF80
E000
E000
E000
E000
E000
FF00
FF00
E000
E000
E000
E000
E000
E000
FFC0
FFC0
ENDCHAR
STARTCHAR Eacute
ENCODING 201
SWIDTH 541 0
DWIDTH 13 0
BBX 10 22 2 0
BITMAP
0700
0600
0C00
0000
0000
FF80
FF80
E000
E000
E000
E000
E000
FF00
FF00
E000
E000
E000
E000
E000
E000
FFC0
FFC0
ENDCHAR
STARTCHAR Ecircumflex
ENCODING 202
SWIDTH 541 0
DWIDTH 13 0
BBX 10 22 2 0
BITMAP
0C00
1E00
3300
0000
0000
FF80
FF80
E000
E000
E000
E000
E000
FF00
FF00
E000
E000
E000
E000
E000
E000
FFC0
FFC0
ENDCHAR
STARTCHAR Edieresis
ENCODING 203
SWIDTH 541 0
DWIDTH 13 0
BBX 10 22 2 0
BITMAP
6300
6300
2100
0000
0000
FF80
FF80
E000
E000
E000
E000
E000
FF00
FF00
E000
E000
E000
E000
E000
E000
FFC0
FFC0
ENDCHAR
STARTCHAR Icircumflex
ENCODING 206
SWIDTH 375 0
DWIDTH 9 0
BBX 6 22 2 0
BITMAP
30
78
CC
00
00
38
38
38
38
38
38
38
38
38
38
38
38
38
38
38
38
38
ENDCHAR
STARTCHAR Idieresis
ENCODING 207
SWIDTH 375 0
DWIDTH 9 0
BBX 7 22 2 0
BITMAP
C6
C6
42
00
00
38
38
38
38
38
38
38
38
38
38
38
38
38
38
38
38
38
ENDCHAR
STARTCHAR Ocircumflex
ENCODING 212
SWIDTH 750 0
DWIDTH 18 0
BBX 15 22 2 0
BITMAP
0300
0780
0CC0
0000
0000
07C0
1FF0
3C78
701C
701C
E00E
E00E
E00E
E00E
E00E
E00E
E00E
701C
701C
3C78
1FF0
07C0
ENDCHAR
STARTCHAR Ugrave
ENCODING 217
SWIDTH 625 0
DWIDTH 15 0
BBX 12 22 2 0
BITMAP
1C00
0C00
0600
0000
0000
E070
E070
E070
E070
E070
E070
E070
E070
E070
E070
E070
E070
E070
70E0
79E0
3FC0
0F00
ENDCHAR
STARTCHAR Ucircumflex
ENCODING 219
SWIDTH 625 0
DWIDTH 15 0
BBX 12 22 2 0
BITMAP
0600
0F00
1980
0000
0000
E070
E070
E070
E070
E070
E070
E070
E070
E070
E070
E070
E070
E070
70E0
79E0
3FC0
0F00
ENDCHAR
STARTCHAR Udieresis
ENCODING 220
SWIDTH 625 0
DWIDTH 15 0
BBX 12 22 2 0
BITMAP
3180
3180
1080
0000
0000
E070
E070
E070
E070
E070
E070
E070
E070
E070
E070
E070
E070
E070
70E0
79E0
3FC0
0F00
ENDCHAR
STARTCHAR agrave
ENCODING 224
SWIDTH 500 0
DWIDTH 12 0
BBX 10 18 2 0
BITMAP
3800
1800
0C00
0000
0000
3F00
3F80
01C0
01C0
0FC0
3FC0
71C0
E1C0
E1C0
E1C0
F3C0
7FC0
3DC0
ENDCHAR
STARTCHAR acircumflex
ENCODING 226
SWIDTH 500 0
DWIDTH 12 0
BBX 10 18 2 0
BITMAP
0C00
1E00
3300
0000
0000
3F00
3F80
01C0
01C0
0FC0
3FC0
71C0
E1C0
E1C0
E1C0
F3C0
7FC0
3DC0
ENDCHAR
STARTCHAR ccedilla
ENCODING 231
SWIDTH 458 0
DWIDTH 11 0
BBX 9 17 2 -4
BITMAP
0F80
3F80
7880
7000
E000
E000
E000
E000
E000
7000
7880
3F80
0F80
0F00
0180
1F80
1F00
ENDCHAR
STARTCHAR egrave
ENCODING 232
SWIDTH 541 0
DWIDTH 13 0
BBX 11 18 2 0
BITMAP
1C00
0C00
0600
0000
0000
0F00
3FC0
79C0
70E0
E0E0
E3E0
EF80
FE00
F800
7000
78C0
3FC0
0F00
ENDCHAR
STARTCHAR eacute
ENCODING 233
SWIDTH 541 0
DWIDTH 13 0
BBX 11 18 2 0
BITMAP
0700
0600
0C00
0000
0000
0F00
3FC0
79C0
70E0
E0E0
E3E0
EF80
FE00
F800
7000
78C0
3FC0
0F00
ENDCHAR
STARTCHAR ecircumflex
ENCODING 234
SWIDTH 541 0
DWIDTH 13 0
BBX 11 18 2 0
BITMAP
0600
0F00
1980
0000
0000
0F00
3FC0
79C0
70E0
E0E0
E3E0
EF80
FE00
F800
7000
78C0
3FC0
0F00
ENDCHAR
STARTCHAR edieresis
ENCODING 235
SWIDTH 541 0
DWIDTH 13 0
BBX 11 18 2 0
BITMAP
3180
3180
1080
0000
0000
0F00
3FC0
79C0
70E0
E0E0
E3E0
EF80
FE00
F800
7000
79C0
3FC0
0F00
ENDCHAR
STARTCHAR icircumflex
ENCODING 238
SWIDTH 333 0
DWIDTH 8 0
BBX 6 18 2 0
BITMAP
30
78
CC
00
00
10
30
70
70
70
70
70
70
70
70
70
70
70
ENDCHAR
STARTCHAR idieresis
ENCODING 239
SWIDTH 333 0
DWIDTH 8 0
BBX 7 18 1 0
BITMAP
C6
C6
42
00
00
08
18
38
38
38
38
38
38
38
38
38
38
38
ENDCHAR
STARTCHAR ocircumflex
ENCODING 244
SWIDTH 625 0
DWIDTH 15 0
BBX 12 18 2 0
BITMAP
0600
0F00
1980
0000
0000
0F00
3FC0
79E0
70E0
E070
E070
E070
E070
E070
70E0
79E0
3FC0
0F00
ENDCHAR
STARTCHAR ugrave
ENCODING 249
SWIDTH 541 0
DWIDTH 13 0
BBX 10 18 2 0
BITMAP
3800
1800
0C00
0000
0000
E1C0
E1C0
E1C0
E1C0
E1C0
E1C0
E1C0
E1C0
E1C0
E1C0
E3C0
7FC0
3CC0
ENDCHAR
STARTCHAR ucircumflex
ENCODING 251
SWIDTH 541 0
DWIDTH 13 0
BBX 10 18 2 0
BITMAP
0C00
1E00
3300
0000
0000
E1C0
E1C0
E1C0
E1C0
E1C0
E1C0
E1C0
E1C0
E1C0
E1C0
E3C0
7FC0
3DC0
ENDCHAR
STARTCHAR udieresis
ENCODING 252
SWIDTH 541 0
DWIDTH 13 0
BBX 10 18 2 0
BITMAP
6300
6300
2100
0000
0000
E1C0
E1C0
E1C0
E1C0
E1C0
E1C0
E1C0
E1C0
E1C0
E1C0
E3C0
7FC0
3DC0
ENDCHAR
ENDFONT
